:SAMPLES-PER-SECOND 30
:FULLY-SPECIFIED
:DEGREES
34
root  35.00161058 36.52736934 -14.67862017 9.929756165 0.5639015436 2.821166754
lowerback  -8.16726017 0.4550830126 1.159310222
upperback  -3.697269917 0.2128919959 -2.810220003
thorax  0.7708600163 -0.07556259632 -3.540119886
lowerneck  -15.08440018 3.143480062 2.239360094
upperneck  13.6821003 2.96510005 3.901789904
head  6.630440235 1.832149982 1.183169961
lclavicle  0 -4.497500157e-015 -2.743230041e-014
lhumerus  -44.0868988 26.05760002 70.63980103
lradius  -0.4670292735 -6.507048965e-006 28.59399986
lwrist  4.824992743e-007 -3.790274832e-007 -28.73970032
lhand  -4.417981087e-031 -36.94029999 -10.58710003
lfingers  90 7.125020027 -90
lthumb  94.81621618 -25.4231656 101.1041122
rclavicle  0 -4.497500157e-015 -2.743230041e-014
rhumerus  -41.36240005 -12.68839931 -75.63980103
rradius  -5.16745672e-007 2.214343908e-008 59.90409851
rwrist  1.129822067e-006 0.001802438172 -163.4129944
rhand  -1.766548279e-031 -1.914170027 -7.626080036
rfingers  -90 -7.125020027 -90
rthumb  -86.42234549 -8.069580557 -65.99186217
rfemur  -12.61474323 14.95072556 13.60463238
rtibia  -0.638523519 0.7079921961 20.37386894
rfoot  -0.3298302591 -19.10197449 -39.57844162
rtoes  4.074267502 19.59726997 -101.9896359
lfemur  -10.18142223 -16.92019272 -18.44515228
ltibia  1.952567935 1.234136343 15.54669476
lfoot  0.4890997112 -28.14930153 33.65902328
ltoes  -8.658281333 -18.09828505 -116.1136133
35
root  35.00225337 36.52939984 -14.67467931 9.956904411 0.5996594429 2.818837643
lowerback  -8.155631065 0.4479279816 1.136510253
upperback  -3.686830044 0.2064819932 -2.808160067
thorax  0.7747039795 -0.07779140025 -3.525589943
lowerneck  -15.06330013 3.165280104 2.303459883
upperneck  13.5468998 3.000139952 3.840559959
head  6.585000038 1.846629977 1.154410005
lclavicle  0 -4.497500157e-015 -2.743230041e-014
lhumerus  -44.11849976 26.06340027 70.62259674
lradius  -0.4677902162 -6.507048965e-006 28.58889961
lwrist  4.824992743e-007 -3.790274832e-007 -28.69360161
lhand  -0 -36.91109848 -10.63360023
lfingers  90 7.125020027 -90
lthumb  94.81244006 -25.46989261 101.0770517
rclavicle  0 -4.497500157e-015 -2.743230041e-014
rhumerus  -40.98989868 -12.14430237 -75.94039917
rradius  -5.16745672e-007 2.214343908e-008 61.00519943
rwrist  1.129822067e-006 0.001802438172 -163.8179932
rhand  -1.766791629e-031 -2.137300014 -7.684050083
rfingers  -90 -7.125020027 -90
rthumb  -86.48752641 -8.004549636 -66.2124668
rfemur  -12.62836266 14.91029739 13.60633278
rtibia  -0.6361569762 0.6919355392 20.36383247
rfoot  -0.3299753666 -19.13483238 -39.57527924
rtoes  4.091169883 19.59388102 -102.0400338
lfemur  -10.16527653 -16.9281826 -18.44397545
ltibia  1.9934026 1.27522862 15.48710442
lfoot  0.5251966715 -28.1951561 33.71395111
ltoes  -8.676014735 -18.09001178 -116.1707111
36
root  35.00028595 36.53034601 -14.66998904 9.965150833 0.6490983367 2.806829453
lowerback  -8.152190208 0.4487110674 1.14255023
upperback  -3.688030005 0.2065880001 -2.827830076
thorax  0.7716159821 -0.07831799984 -3.549469948
lowerneck  -15.04520035 3.180730104 2.371929884
upperneck  13.43910027 3.021729946 3.788379908
head  6.549069881 1.855550051 1.126979947
lclavicle  0 -4.497500157e-015 -2.743230041e-014
lhumerus  -44.16830063 26.08670044 70.56240082
lradius  -0.4685411751 -6.507048965e-006 28.61319733
lwrist  4.824992743e-007 -3.790274832e-007 -28.67250061
lhand  -0 -36.90370178 -10.60690022
lfingers  90 7.125020027 -90
lthumb  94.8032965 -25.44379348 101.0667513
rclavicle  0 -4.497500157e-015 -2.743230041e-014
rhumerus  -40.60649872 -11.41009998 -76.26750183
rradius  -5.16745672e-007 2.214343908e-008 62.19400024
rwrist  1.129822067e-006 0.001802438172 -164.3179932
rhand  -1.767200013e-031 -2.466710091 -7.658199787
rfingers  -90 -7.125020027 -90
rthumb  -86.5377246 -8.010581704 -66.53179902
rfemur  -12.61593151 14.85149574 13.6309309
rtibia  -0.6322261095 0.6854830384 20.34862137
rfoot  -0.3320504725 -19.16743088 -39.56277847
rtoes  4.069473023 19.59822859 -101.9753417
lfemur  -10.13690567 -16.96133614 -18.43142319
ltibia  2.015024185 1.293605208 15.43539906
lfoot  0.516140461 -28.19607735 33.70677948
ltoes  -8.718322212 -18.07018792 -116.3070345
37
root  34.99877209 36.53049619 -14.66510653 9.963345528 0.6866263747 2.813947439
lowerback  -8.208140373 0.4647180438 1.160899282
upperback  -3.655869961 0.229035005 -2.85255003
thorax  0.8374109864 -0.06569559872 -3.583940029
lowerneck  -15.07250023 3.208189964 2.439219952
upperneck  13.31309986 3.052099943 3.774399996
head  6.514430046 1.871999979 1.113479972
lclavicle  0 -4.497500157e-015 -2.743230041e-014
lhumerus  -44.2696991 26.13019943 70.51260376
lradius  -0.4692830443 -6.507048965e-006 28.72709846
lwrist  4.824992743e-007 -3.790274832e-007 -28.69869995
lhand  -4.415548489e-031 -36.89830017 -10.55959988
lfingers  90 7.125020027 -90
lthumb  94.79074775 -25.3976094 101.0566937
rclavicle  0 -4.497500157e-015 -2.743230041e-014
rhumerus  -40.12419891 -10.73309994 -76.60160065
rradius  -5.16745672e-007 2.214343908e-008 63.38240051
rwrist  1.129822067e-006 0.001802438172 -164.8849945
rhand  -1.766862857e-031 -2.198319912 -7.641699791
rfingers  -90 -7.125020027 -90
rthumb  -86.48159599 -8.039988717 -66.26945796
rfemur  -12.61511707 14.87245655 13.63699627
rtibia  -0.6414888501 0.7241228819 20.3730545
rfoot  -0.3343426585 -19.0941391 -39.57389832
rtoes  4.073237573 19.59747599 -101.9865652
lfemur  -10.05589485 -16.97542763 -18.47192764
ltibia  2.06913352 1.304227114 15.32104015
lfoot  0.5028230548 -28.16150665 33.70534134
ltoes  -8.701386425 -18.07813801 -116.2524466
38
root  34.99927371 36.53089568 -14.66190759 9.964380264 0.7221237421 2.79700017
lowerback  -8.234910011 0.463721931 1.11300981
upperback  -3.653320074 0.2305739969 -2.856309891
thorax  0.8547449708 -0.06463920325 -3.560689926
lowerneck  -15.03450012 3.25605011 2.495630026
upperneck  13.17870045 3.117000103 3.750950098
head  6.465630054 1.902999997 1.100700021
lclavicle  0 -4.497500157e-015 -2.743230041e-014
lhumerus  -44.37440109 26.22979927 70.4213028
lradius  -0.4700168669 -6.507048965e-006 28.75399971
lwrist  4.824992743e-007 -3.790274832e-007 -28.79719925
lhand  -4.416926341e-031 -36.92210007 -10.63910007
lfingers  90 7.125020027 -90
lthumb  94.81878769 -25.47488462 101.0893896
rclavicle  0 -4.497500157e-015 -2.743230041e-014
rhumerus  -39.63610077 -9.882651329 -76.97619629
rradius  -5.16745672e-007 2.214343908e-008 64.44110107
rwrist  1.129822067e-006 0.001802438172 -165.5429993
rhand  -1.766974577e-031 -2.290750027 -7.815090179
rfingers  -90 -7.125020027 -90
rthumb  -86.56887696 -7.876216657 -66.36922568
rfemur  -12.5852623 14.88849545 13.65964222
rtibia  -0.6299425364 0.745857358 20.33513832
rfoot  -0.322064966 -19.06064034 -39.59944534
rtoes  4.09954899 19.59219555 -102.0650209
lfemur  -10.03630638 -17.01440811 -18.45398903
ltibia  2.06922555 1.306564808 15.29605198
lfoot  0.4830850959 -28.14516068 33.69633484
ltoes  -8.699288918 -18.07912128 -116.2456874
39
root  34.99941488 36.53265285 -14.65321638 9.992847443 0.7967037559 2.753753185
lowerback  -8.122980118 0.4320209622 1.004559755
upperback  -3.698440075 0.1919669956 -2.851320028
thorax  0.7432780266 -0.08595730364 -3.496850014
lowerneck  -14.94900036 3.29798007 2.541919947
upperneck  13.08180046 3.172519922 3.74229002
head  6.420629978 1.929579973 1.092859983
lclavicle  0 -4.497500157e-015 -2.743230041e-014
lhumerus  -44.50579834 26.3083992 70.31369781
lradius  -0.4707435966 -6.507048965e-006 28.72430038
lwrist  4.824992743e-007 -3.790274832e-007 -28.86059952
lhand  -0 -36.89720154 -10.62040043
lfingers  90 7.125020027 -90
lthumb  94.80314035 -25.45737287 101.0610251
rclavicle  0 -4.497500157e-015 -2.743230041e-014
rhumerus  -39.16630173 -9.359769821 -77.17379761
rradius  -5.16745672e-007 2.214343908e-008 65.62609863
rwrist  1.129822067e-006 0.001802438172 -165.9029999
rhand  -1.766390027e-031 -1.75387001 -7.743070126
rfingers  -90 -7.125020027 -90
rthumb  -86.44066155 -7.971547448 -65.84251454
rfemur  -12.54277134 14.87582493 13.69386387
rtibia  -0.5938887 0.7767060399 20.22429466
rfoot  -0.2706049979 -18.99115944 -39.61321259
rtoes  4.082719133 19.59557725 -102.0148351
lfemur  -10.07274342 -16.99298286 -18.38498878
ltibia  2.044471502 1.353857875 15.32572842
lfoot  0.4711720049 -28.24480438 33.61882019
ltoes  -8.696739479 -18.080316 -116.2374724
40
root  35.00176678 36.53276699 -14.64985224 9.993162155 0.8353890181 2.764847517
lowerback  -8.151769638 0.4317789674 0.9794715047
upperback  -3.702399969 0.1921990067 -2.855289936
thorax  0.754998982 -0.08612389863 -3.486860037
lowerneck  -15.02569962 3.320790052 2.525190115
upperneck  13.10519981 3.188539982 3.822210073
head  6.439499855 1.943689942 1.124519944
lclavicle  0 -4.497500157e-015 -2.743230041e-014
lhumerus  -44.56299973 26.30699921 70.26689911
lradius  -0.4714642167 -6.507048965e-006 28.72589874
lwrist  4.824992743e-007 -3.790274832e-007 -28.85490036
lhand  -0 -36.87879944 -10.63630009
lfingers  90 7.125020027 -90
lthumb  94.79788268 -25.47358286 101.0427593
rclavicle  0 -4.497500157e-015 -2.743230041e-014
rhumerus  -38.61009979 -8.712730408 -77.43000031
rradius  -5.16745672e-007 2.214343908e-008 66.74099731
rwrist  1.129822067e-006 0.001802438172 -166.3470001
rhand  -1.766378794e-031 -1.741930008 -7.881420135
rfingers  -90 -7.125020027 -90
rthumb  -86.49563429 -7.845931832 -65.83871015
rfemur  -12.53367138 14.88217163 13.68231106
rtibia  -0.5938322544 0.7854138017 20.22180176
rfoot  -0.2777973115 -18.96130371 -39.66159439
rtoes  4.060878087 19.59994412 -101.9497186
lfemur  -10.10866451 -17.01669502 -18.38944626
ltibia  2.021981955 1.330478072 15.36570168
lfoot  0.4369827211 -28.22048569 33.53609085
ltoes  -8.68957451 -18.08367132 -116.2143878
41
root  35.00090171 36.53356297 -14.64644905 10.00788403 0.8549785018 2.765182257
lowerback  -8.184690475 0.4410520494 0.9747211337
upperback  -3.685930014 0.2062949985 -2.860860109
thorax  0.791122973 -0.07812210172 -3.48890996
lowerneck  -15.10639954 3.346590042 2.496599913
upperneck  13.11100006 3.211819887 3.905009985
head  6.453020096 1.961019993 1.159590006
lclavicle  0 -4.497500157e-015 -2.743230041e-014
lhumerus  -44.60490036 26.33979988 70.21369934
lradius  -0.4721796513 -6.507048965e-006 28.72739983
lwrist  4.824992743e-007 -3.790274832e-007 -28.92910004
lhand  -4.412335987e-031 -36.84270096 -10.63549995
lfingers  90 7.125020027 -90
lthumb  94.78081743 -25.47403652 101.0040854
rclavicle  0 -4.497500157e-015 -2.743230041e-014
rhumerus  -38.00550079 -8.186109543 -77.66899872
rradius  -5.16745672e-007 2.214343908e-008 67.96980286
rwrist  1.129822067e-006 0.001802438172 -166.8049927
rhand  -1.766249467e-031 -1.598039985 -7.569210052
rfingers  -90 -7.125020027 -90
rthumb  -86.33931579 -8.13857684 -65.68058208
rfemur  -12.53442478 14.86703777 13.68397045
rtibia  -0.5945447683 0.7790195942 20.20448112
rfoot  -0.2832343578 -18.96814156 -39.68825531
rtoes  4.073734759 19.59737654 -101.9880475
lfemur  -10.14300919 -17.03182602 -18.36837196
ltibia  2.015849829 1.329270363 15.38257313
lfoot  0.4354118109 -28.21312141 33.52318954
ltoes  -8.707871356 -18.07509611 -116.2733463
